<?xml version="1.0" standalone="no"?>
<!DOCTYPE svg PUBLIC "-//W3C//DTD SVG 20010904//EN"
 "http://www.w3.org/TR/2001/REC-SVG-20010904/DTD/svg10.dtd">
<svg version="1.0" xmlns="http://www.w3.org/2000/svg"
 width="235.000000pt" height="235.000000pt" viewBox="0 0 235.000000 235.000000"
 preserveAspectRatio="xMidYMid meet">
<metadata>
Created by potrace 1.14, written by Peter Selinger 2001-2017
</metadata>
<g transform="translate(0.000000,235.000000) scale(0.100000,-0.100000)"
fill="#000000" stroke="none">
<path d="M928 2180 c-365 -76 -653 -336 -762 -690 -34 -110 -44 -190 -41 -320
3 -115 14 -181 47 -280 92 -281 322 -523 593 -622 135 -50 206 -62 360 -62 99
-1 166 4 195 13 145 44 182 57 251 92 283 141 485 420 533 736 19 123 18 134
-29 161 -40 23 -77 24 -169 7 -46 -9 -56 -1 -46 35 16 56 -17 110 -68 110 -14
0 -27 17 -46 63 -35 78 -50 95 -95 103 -70 12 -106 80 -66 124 25 28 26 61 4
97 -19 30 -21 48 -20 138 l2 104 -39 43 c-21 24 -53 59 -71 80 -39 43 -60 53
-165 72 -108 19 -262 18 -368 -4z"/>
<path d="M1719 2084 c-9 -11 -13 -63 -10 -117 1 -10 8 -20 17 -24 23 -9 142
45 149 68 7 21 -3 78 -13 80 -43 8 -135 3 -143 -7z"/>
<path d="M1823 1851 c-34 -34 -42 -48 -48 -93 -4 -29 -9 -69 -12 -88 -13 -76
5 -105 71 -115 21 -4 47 -8 57 -10 26 -5 77 49 84 88 6 30 -3 66 -35 142 -5
11 -18 41 -29 68 -11 26 -26 47 -33 47 -8 0 -32 -18 -55 -39z"/>
<path d="M1993 1470 c-50 -20 -65 -112 -21 -126 27 -8 94 38 100 69 11 57 -21
80 -79 57z"/>
</g>
</svg>
